PathFileType	4	(X/Y/Z)	output.trc
DataRate	CameraRate	NumFrames	NumMarkers	Units	OrigDataRate	OrigDataStartFrame	OrigNumFrames
100	100	9	23	m	100	1396	5582
Frame#	Time	C7			T8			EL			EM			US			RS			AA			Fore_Clus_1			Fore_Clus_2			Fore_Clus_3			Fore_Clus_4			Hum_Clus_1			Hum_Clus_2			Hum_Clus_3			Hum_Clus_4			Thor_Clus_1			Thor_Clus_2			Thor_Clus_3			Thor_Clus_4			IJ			PX			GH			Thor_Clus_5		
		X1	Y1	Z1	X2	Y2	Z2	X3	Y3	Z3	X4	Y4	Z4	X5	Y5	Z5	X6	Y6	Z6	X7	Y7	Z7	X8	Y8	Z8	X9	Y9	Z9	X10	Y10	Z10	X11	Y11	Z11	X12	Y12	Z12	X13	Y13	Z13	X14	Y14	Z14	X15	Y15	Z15	X16	Y16	Z16	X17	Y17	Z17	X18	Y18	Z18	X19	Y19	Z19	X20	Y20	Z20	X21	Y21	Z21	X22	Y22	Z22	X23	Y23	Z23
1395	13.950000	-0.054012	1.373647	-0.061177	-0.077074	1.171967	-0.119330	-0.244553	1.026890	0.004082	-0.209774	1.030939	-0.043599	-0.298990	0.806298	-0.030062	-0.281781	0.795265	0.017301	-0.178806	1.289223	0.072082	-0.324134	0.856914	-0.007746	-0.336114	0.803671	-0.011397	-0.326183	0.800013	0.014520	-0.307431	0.850975	0.033694	-0.242287	1.123433	0.075885	-0.256401	1.154749	0.026400	-0.250378	1.213825	0.049210	-0.227664	1.192459	0.099072	0.069996	1.266544	0.050377	0.031618	1.210881	0.100974	0.033081	1.262678	0.075226	0.084582	1.216512	0.064847	0.010927	1.287849	0.022203	0.027783	1.089427	0.041983	-0.134599	1.274993	0.067069	0.024951	1.233298	0.094452
1396	13.960000	-0.054178	1.373591	-0.061219	-0.077250	1.171891	-0.119302	-0.244634	1.026873	0.004117	-0.209863	1.030918	-0.043570	-0.299123	0.806288	-0.030020	-0.281933	0.795258	0.017350	-0.178880	1.289187	0.072138	-0.324261	0.856934	-0.007749	-0.336270	0.803683	-0.011408	-0.326327	0.800035	0.014549	-0.307601	0.850997	0.033707	-0.242363	1.123429	0.075882	-0.256467	1.154744	0.026399	-0.250454	1.213806	0.049202	-0.227748	1.192462	0.099063	0.070064	1.266337	0.049980	0.031550	1.210868	0.100948	0.033022	1.262681	0.075172	0.084496	1.216524	0.064779	0.010822	1.287825	0.022145	0.027716	1.089410	0.041970	-0.134670	1.274979	0.067072	0.024909	1.233304	0.094394
1397	13.970000	-0.054363	1.373539	-0.061245	-0.077424	1.171824	-0.119281	-0.244736	1.026857	0.004150	-0.209971	1.030896	-0.043543	-0.299286	0.806284	-0.029985	-0.282101	0.795255	0.017387	-0.178963	1.289128	0.072204	-0.324434	0.856950	-0.007756	-0.336459	0.803693	-0.011387	-0.326494	0.800048	0.014575	-0.307773	0.851007	0.033731	-0.242450	1.123396	0.075908	-0.256542	1.154714	0.026405	-0.250533	1.213795	0.049183	-0.227837	1.192451	0.099065	0.069945	1.266344	0.049940	0.031490	1.210876	0.100891	0.032948	1.262673	0.075115	0.084403	1.216519	0.064712	0.010709	1.287801	0.022092	0.027662	1.089394	0.041939	-0.134733	1.274954	0.067074	0.024893	1.233250	0.094347
1398	13.980000	-0.054562	1.373494	-0.061256	-0.077595	1.171770	-0.119269	-0.244858	1.026844	0.004178	-0.210099	1.030873	-0.043520	-0.299478	0.806288	-0.029958	-0.282284	0.795255	0.017410	-0.179051	1.289049	0.072275	-0.324614	0.856987	-0.007744	-0.336660	0.803728	-0.011344	-0.326668	0.800072	0.014607	-0.307929	0.851033	0.033755	-0.242536	1.123407	0.075915	-0.256622	1.154721	0.026405	-0.250611	1.213807	0.049180	-0.227910	1.192459	0.099072	0.069884	1.266336	0.049844	0.031446	1.210879	0.100805	0.032882	1.262671	0.075049	0.084327	1.216521	0.064626	0.010589	1.287780	0.022045	0.027618	1.089379	0.041889	-0.134790	1.274919	0.067075	0.024888	1.233192	0.094290
1399	13.990000	-0.054769	1.373458	-0.061252	-0.077761	1.171730	-0.119267	-0.244999	1.026836	0.004201	-0.210245	1.030852	-0.043502	-0.299698	0.806299	-0.029939	-0.282476	0.795258	0.017417	-0.179144	1.288956	0.072348	-0.324811	0.856995	-0.007688	-0.336878	0.803749	-0.011287	-0.326853	0.800078	0.014643	-0.308082	0.851024	0.033792	-0.242645	1.123393	0.075928	-0.256727	1.154721	0.026423	-0.250705	1.213801	0.049198	-0.227988	1.192461	0.099092	0.069801	1.266332	0.049767	0.031373	1.210865	0.100749	0.032814	1.262649	0.074996	0.084307	1.216567	0.064536	0.010466	1.287762	0.022001	0.027581	1.089366	0.041819	-0.134841	1.274875	0.067078	0.024833	1.233193	0.094233
1400	14.000000	-0.054984	1.373429	-0.061238	-0.077919	1.171702	-0.119278	-0.245161	1.026832	0.004219	-0.210412	1.030833	-0.043489	-0.299939	0.806318	-0.029924	-0.282672	0.795266	0.017412	-0.179243	1.288845	0.072418	-0.325005	0.857033	-0.007646	-0.337068	0.803752	-0.011222	-0.327022	0.800078	0.014686	-0.308221	0.851044	0.033822	-0.242762	1.123406	0.075945	-0.256870	1.154744	0.026439	-0.250796	1.213814	0.049229	-0.228076	1.192457	0.099118	0.069707	1.266317	0.049679	0.031325	1.210845	0.100679	0.032749	1.262631	0.074920	0.084242	1.216581	0.064427	0.010338	1.287747	0.021961	0.027554	1.089355	0.041731	-0.134887	1.274824	0.067079	0.024794	1.233175	0.094155
1401	14.010000	-0.055198	1.373411	-0.061216	-0.078070	1.171690	-0.119302	-0.245339	1.026834	0.004229	-0.210593	1.030818	-0.043481	-0.300201	0.806343	-0.029917	-0.282869	0.795276	0.017393	-0.179343	1.288730	0.072484	-0.325221	0.857058	-0.007594	-0.337281	0.803780	-0.011190	-0.327229	0.800065	0.014734	-0.308378	0.851049	0.033851	-0.242902	1.123400	0.075965	-0.256997	1.154744	0.026461	-0.250898	1.213813	0.049261	-0.228172	1.192450	0.099161	0.069639	1.266305	0.049584	0.031273	1.210819	0.100613	0.032682	1.262609	0.074873	0.084163	1.216552	0.064338	0.010210	1.287735	0.021922	0.027531	1.089345	0.041625	-0.134931	1.274768	0.067083	0.024738	1.233139	0.094081
1402	14.020000	-0.055409	1.373400	-0.061190	-0.078211	1.171689	-0.119339	-0.245532	1.026842	0.004234	-0.210790	1.030808	-0.043480	-0.300475	0.806374	-0.029911	-0.283062	0.795291	0.017365	-0.179446	1.288609	0.072541	-0.325443	0.857095	-0.007564	-0.337431	0.803851	-0.011158	-0.327438	0.800084	0.014762	-0.308563	0.851051	0.033860	-0.243026	1.123386	0.075975	-0.257118	1.154755	0.026478	-0.250984	1.213825	0.049297	-0.228255	1.192443	0.099182	0.069626	1.266221	0.049433	0.031216	1.210804	0.100537	0.032601	1.262606	0.074757	0.084093	1.216536	0.064229	0.010083	1.287727	0.021884	0.027511	1.089338	0.041505	-0.134975	1.274710	0.067086	0.024694	1.233115	0.094005
1403	14.030000	-0.055614	1.373398	-0.061165	-0.078344	1.171700	-0.119388	-0.245736	1.026854	0.004234	-0.210996	1.030803	-0.043485	-0.300754	0.806408	-0.029906	-0.283249	0.795308	0.017332	-0.179549	1.288490	0.072587	-0.325684	0.857130	-0.007509	-0.337593	0.803913	-0.011128	-0.327660	0.800104	0.014792	-0.308750	0.851062	0.033871	-0.243155	1.123375	0.075981	-0.257238	1.154761	0.026497	-0.251071	1.213828	0.049320	-0.228347	1.192422	0.099196	0.069075	1.266681	0.049689	0.031147	1.210767	0.100460	0.032502	1.262604	0.074671	0.084035	1.216502	0.064150	0.009957	1.287721	0.021844	0.027491	1.089333	0.041374	-0.135023	1.274652	0.067091	0.024642	1.233084	0.093931
